<?xml version="1.0" standalone="no"?>
<!DOCTYPE svg PUBLIC "-//W3C//DTD SVG 20010904//EN"
 "http://www.w3.org/TR/2001/REC-SVG-20010904/DTD/svg10.dtd">
<svg version="1.0" xmlns="http://www.w3.org/2000/svg"
 width="192.000000pt" height="191.000000pt" viewBox="0 0 192.000000 191.000000"
 preserveAspectRatio="xMidYMid meet">

<g transform="translate(0.000000,191.000000) scale(0.100000,-0.100000)"
fill="#000000" stroke="none">
<path d="M240 1871 c-86 -18 -171 -86 -209 -167 -21 -43 -21 -56 -21 -750 l0
-705 27 -55 c29 -60 70 -102 136 -136 l42 -23 714 -3 c831 -3 787 -7 882 87
94 95 90 55 87 857 l-3 689 -23 43 c-30 56 -90 114 -150 143 l-47 24 -700 2
c-385 0 -716 -2 -735 -6z m943 -270 c53 -32 77 -85 77 -166 l0 -65 126 0 c142
0 179 -11 217 -64 22 -31 22 -36 25 -416 3 -439 4 -434 -78 -477 l-43 -23
-556 0 -557 0 -44 23 c-80 41 -80 38 -80 467 0 413 1 418 63 464 25 18 46 21
168 24 l139 4 0 72 c0 89 22 129 90 164 43 22 54 23 230 20 174 -3 187 -4 223
-27z"/>
<path d="M776 1474 c-3 -9 -6 -36 -6 -60 l0 -44 180 0 180 0 0 48 c0 26 -5 53
-12 60 -8 8 -61 12 -174 12 -138 0 -163 -2 -168 -16z"/>
<path d="M687 1139 c-48 -37 -38 -61 73 -173 l100 -102 -100 -99 c-106 -106
-120 -134 -82 -168 37 -34 63 -22 162 78 52 52 99 95 105 95 6 0 53 -43 105
-95 79 -79 100 -95 126 -95 17 0 38 8 47 18 33 37 21 61 -83 166 l-100 102 95
94 c52 52 98 103 101 113 15 46 -30 95 -73 80 -10 -3 -62 -49 -115 -102 l-98
-96 -97 97 c-54 53 -107 99 -119 102 -13 4 -30 -1 -47 -15z"/>
</g>
</svg>
